<svg xmlns="http://www.w3.org/2000/svg" xmlns:xlink="http://www.w3.org/1999/xlink" version="1.1" baseProfile="full" style="user-select: none; position: absolute; left: 0px; top: 0px;" width="896" height="550">
<g>
<rect width="896" height="550" x="0" y="0" id="0" style="fill: transparent;">
</rect>
</g>
<g>
<path d="M 42 508.5 L 881 508.5" fill="none" stroke="#E0E6F1" stroke-width="1" paint-order="fill" stroke-opacity="1" stroke-dasharray="" stroke-linecap="butt" stroke-miterlimit="10">
</path>
<path d="M 42 447.5 L 881 447.5" fill="none" stroke="#E0E6F1" stroke-width="1" paint-order="fill" stroke-opacity="1" stroke-dasharray="" stroke-linecap="butt" stroke-miterlimit="10">
</path>
<path d="M 42 386.5 L 881 386.5" fill="none" stroke="#E0E6F1" stroke-width="1" paint-order="fill" stroke-opacity="1" stroke-dasharray="" stroke-linecap="butt" stroke-miterlimit="10">
</path>
<path d="M 42 325.5 L 881 325.5" fill="none" stroke="#E0E6F1" stroke-width="1" paint-order="fill" stroke-opacity="1" stroke-dasharray="" stroke-linecap="butt" stroke-miterlimit="10">
</path>
<path d="M 42 263.5 L 881 263.5" fill="none" stroke="#E0E6F1" stroke-width="1" paint-order="fill" stroke-opacity="1" stroke-dasharray="" stroke-linecap="butt" stroke-miterlimit="10">
</path>
<path d="M 42 202.5 L 881 202.5" fill="none" stroke="#E0E6F1" stroke-width="1" paint-order="fill" stroke-opacity="1" stroke-dasharray="" stroke-linecap="butt" stroke-miterlimit="10">
</path>
<path d="M 42 141.5 L 881 141.5" fill="none" stroke="#E0E6F1" stroke-width="1" paint-order="fill" stroke-opacity="1" stroke-dasharray="" stroke-linecap="butt" stroke-miterlimit="10">
</path>
<path d="M 42 80.5 L 881 80.5" fill="none" stroke="#E0E6F1" stroke-width="1" paint-order="fill" stroke-opacity="1" stroke-dasharray="" stroke-linecap="butt" stroke-miterlimit="10">
</path>
<path d="M 42 508.5 L 881 508.5" fill="none" stroke="#6E7079" stroke-width="1" paint-order="fill" stroke-opacity="1" stroke-dasharray="" stroke-linecap="round" stroke-miterlimit="10">
</path>
<path d="M 100.5 508.7157 L 100.5 513.7157" fill="none" stroke="#6E7079" stroke-width="1" paint-order="fill" stroke-opacity="1" stroke-dasharray="" stroke-linecap="butt" stroke-miterlimit="10">
</path>
<path d="M 232.5 508.7157 L 232.5 513.7157" fill="none" stroke="#6E7079" stroke-width="1" paint-order="fill" stroke-opacity="1" stroke-dasharray="" stroke-linecap="butt" stroke-miterlimit="10">
</path>
<path d="M 362.5 508.7157 L 362.5 513.7157" fill="none" stroke="#6E7079" stroke-width="1" paint-order="fill" stroke-opacity="1" stroke-dasharray="" stroke-linecap="butt" stroke-miterlimit="10">
</path>
<path d="M 494.5 508.7157 L 494.5 513.7157" fill="none" stroke="#6E7079" stroke-width="1" paint-order="fill" stroke-opacity="1" stroke-dasharray="" stroke-linecap="butt" stroke-miterlimit="10">
</path>
<path d="M 624.5 508.7157 L 624.5 513.7157" fill="none" stroke="#6E7079" stroke-width="1" paint-order="fill" stroke-opacity="1" stroke-dasharray="" stroke-linecap="butt" stroke-miterlimit="10">
</path>
<path d="M 755.5 508.7157 L 755.5 513.7157" fill="none" stroke="#6E7079" stroke-width="1" paint-order="fill" stroke-opacity="1" stroke-dasharray="" stroke-linecap="butt" stroke-miterlimit="10">
</path>
<text xml:space="preserve" style="font: sans-serif 14px normal normal normal 14px;" fill="#6E7079" fill-opacity="1" stroke="none" transform="matrix(1,0,0,1,34,508.7157)" dominant-baseline="central" text-anchor="end" x="0" y="0">0</text>
<text xml:space="preserve" style="font: sans-serif 14px normal normal normal 14px;" fill="#6E7079" fill-opacity="1" stroke="none" transform="matrix(1,0,0,1,34,447.4706)" dominant-baseline="central" text-anchor="end" x="0" y="0">50</text>
<text xml:space="preserve" style="font: sans-serif 14px normal normal normal 14px;" fill="#6E7079" fill-opacity="1" stroke="none" transform="matrix(1,0,0,1,34,386.2255)" dominant-baseline="central" text-anchor="end" x="0" y="0">100</text>
<text xml:space="preserve" style="font: sans-serif 14px normal normal normal 14px;" fill="#6E7079" fill-opacity="1" stroke="none" transform="matrix(1,0,0,1,34,324.9804)" dominant-baseline="central" text-anchor="end" x="0" y="0">150</text>
<text xml:space="preserve" style="font: sans-serif 14px normal normal normal 14px;" fill="#6E7079" fill-opacity="1" stroke="none" transform="matrix(1,0,0,1,34,263.7353)" dominant-baseline="central" text-anchor="end" x="0" y="0">200</text>
<text xml:space="preserve" style="font: sans-serif 14px normal normal normal 14px;" fill="#6E7079" fill-opacity="1" stroke="none" transform="matrix(1,0,0,1,34,202.4902)" dominant-baseline="central" text-anchor="end" x="0" y="0">250</text>
<text xml:space="preserve" style="font: sans-serif 14px normal normal normal 14px;" fill="#6E7079" fill-opacity="1" stroke="none" transform="matrix(1,0,0,1,34,141.2451)" dominant-baseline="central" text-anchor="end" x="0" y="0">300</text>
<text xml:space="preserve" style="font: sans-serif 14px normal normal normal 14px;" fill="#6E7079" fill-opacity="1" stroke="none" transform="matrix(1,0,0,1,34,80)" dominant-baseline="central" text-anchor="end" x="0" y="0">350</text>
<text xml:space="preserve" style="font: sans-serif 14px normal normal normal 14px;" fill="#6E7079" fill-opacity="1" stroke="none" transform="matrix(0.707,-0.707,0.707,0.707,100.7014,516.7157)" dominant-baseline="central" text-anchor="end" x="0" y="0">Jul</text>
<text xml:space="preserve" style="font: sans-serif 12px normal normal bold 12px;" fill="#6E7079" fill-opacity="1" stroke="none" transform="matrix(0.707,-0.707,0.707,0.707,232.4215,516.7157)" dominant-baseline="central" text-anchor="end" x="0" y="0">2020</text>
<text xml:space="preserve" style="font: sans-serif 14px normal normal normal 14px;" fill="#6E7079" fill-opacity="1" stroke="none" transform="matrix(0.707,-0.707,0.707,0.707,362.7099,516.7157)" dominant-baseline="central" text-anchor="end" x="0" y="0">Jul</text>
<text xml:space="preserve" style="font: sans-serif 12px normal normal bold 12px;" fill="#6E7079" fill-opacity="1" stroke="none" transform="matrix(0.707,-0.707,0.707,0.707,494.43,516.7157)" dominant-baseline="central" text-anchor="end" x="0" y="0">2021</text>
<text xml:space="preserve" style="font: sans-serif 14px normal normal normal 14px;" fill="#6E7079" fill-opacity="1" stroke="none" transform="matrix(0.707,-0.707,0.707,0.707,624.0026,516.7157)" dominant-baseline="central" text-anchor="end" x="0" y="0">Jul</text>
<text xml:space="preserve" style="font: sans-serif 12px normal normal bold 12px;" fill="#6E7079" fill-opacity="1" stroke="none" transform="matrix(0.707,-0.707,0.707,0.707,755.7227,516.7157)" dominant-baseline="central" text-anchor="end" x="0" y="0">2022</text>
<g clip-path="url(#zr2654-clip-0)">
<path d="M 42 507.4908 C 42 507.4908 43.7897 507.4908 45.5794 507.4908 C 49.1587 507.4908 49.1587 507.4908 52.7381 507.4908 C 56.3174 507.4908 56.3174 507.4908 59.8968 507.4908 C 63.4761 507.4908 63.4761 507.4908 67.0555 507.4908 C 70.6348 507.4908 70.6572 507.4908 74.2142 507.4908 C 78.1739 507.4908 78.1561 506.9068 82.0887 506.2659 C 85.6727 505.6819 85.6423 505.041 89.2474 505.041 C 92.801 505.041 93.0358 505.041 96.4061 505.041 C 100.1945 505.041 100.2671 503.6234 103.5648 501.3663 C 107.4258 498.7238 106.6811 496.8307 110.7235 495.2418 C 113.8399 494.0169 114.2758 494.0169 117.8823 494.0169 C 121.7925 494.0169 121.9235 494.0169 125.7568 494.0169 C 129.4401 494.0169 129.2629 492.5046 132.9155 491.5671 C 136.4216 490.6672 136.4678 490.3422 140.0742 490.3422 C 143.9845 490.3422 144.3722 490.3422 147.9488 490.3422 C 151.8889 490.3422 151.8278 488.2485 155.1075 485.4426 C 158.9865 482.124 158.0747 479.8235 162.2662 478.0932 C 165.2334 476.8683 165.9188 477.7682 169.4249 476.8683 C 173.0775 475.9308 172.9052 474.4185 176.5836 474.4185 C 180.0639 474.4185 181.4846 474.4185 183.7423 474.4185 C 189.0013 474.4185 186.5468 465.9162 191.6169 459.7196 C 194.0635 456.7294 195.1963 457.8823 198.7756 456.045 C 202.355 454.2076 202.3549 454.2076 205.9343 452.3702 C 209.5136 450.5329 209.3046 448.6955 213.093 448.6955 C 216.4633 448.6955 216.7714 448.6955 220.2517 448.6955 C 223.9301 448.6955 223.7496 447.1406 227.4104 446.2457 C 231.2662 445.3032 231.9989 446.2457 235.285 445.0208 C 239.5155 443.4439 238.3235 440.4914 242.4437 437.6714 C 245.4822 435.5918 245.9191 435.2216 249.6024 435.2216 C 253.4357 435.2216 253.5667 435.2216 257.477 435.2216 C 261.0834 435.2216 261.1296 434.8966 264.6357 433.9967 C 268.2883 433.0592 268.5086 433.3223 271.7944 431.5469 C 275.3094 429.6476 274.6527 428.0124 278.2372 426.6473 C 281.4535 425.4224 281.9999 426.5846 285.3959 425.4224 C 289.1586 424.1348 288.8424 423.26 292.5546 421.7477 C 296.3591 420.1978 296.5091 420.5755 300.4292 419.2979 C 304.0257 418.1257 303.9353 417.7856 307.5879 416.8481 C 311.094 415.9482 311.1414 415.6232 314.7466 415.6232 C 318.3001 415.6232 318.425 415.6232 321.9053 415.6232 C 325.5837 415.6232 325.3856 413.1734 329.064 413.1734 C 332.5443 413.1734 332.7298 413.1734 336.2227 413.1734 C 340.2465 413.1734 340.434 412.5145 344.0973 410.7236 C 347.9507 408.8397 347.6766 408.2738 351.256 405.8239 C 354.8353 403.3741 354.7009 403.1484 358.4147 400.9243 C 361.8596 398.8613 362.2756 399.5067 365.5734 397.2496 C 369.4343 394.6071 368.8711 393.7677 372.7321 391.1251 C 376.0298 388.8681 376.1786 388.9627 379.8908 387.4504 C 383.6952 385.9005 383.8453 386.2782 387.7654 385.0006 C 391.3619 383.8284 391.3447 383.7757 394.9241 382.5508 C 398.5034 381.3259 398.4862 381.2732 402.0828 380.101 C 406.0028 378.8234 406.2941 379.4421 409.9573 377.6512 C 413.8107 375.7674 413.2195 374.2146 417.116 372.7516 C 420.3782 371.5267 420.6954 372.1392 424.2747 371.5267 C 427.8541 370.9143 427.9274 371.2017 431.4334 370.3018 C 435.0861 369.3643 435.5536 369.9316 438.5922 367.852 C 442.7123 365.032 442.084 364.0879 445.7509 360.5026 C 449.6006 356.7384 449.1099 353.1532 453.6254 353.1532 C 456.6265 353.1532 457.4138 353.1532 460.7841 353.1532 C 464.5725 353.1532 464.4979 351.5415 467.9428 349.4785 C 471.6566 347.2544 471.2779 346.5416 475.1015 344.5789 C 478.4366 342.8669 478.5818 342.1291 482.2603 342.1291 C 485.7405 342.1291 486.0237 342.1291 489.4189 342.1291 C 493.5403 342.1291 493.532 340.5998 497.2935 338.4543 C 501.0486 336.3126 500.5557 335.0178 504.4522 333.5547 C 507.7144 332.3298 508.1888 333.4452 511.6109 332.3298 C 515.7054 330.9954 515.4674 330.2921 519.4855 328.6551 C 522.9841 327.2298 523.0649 327.4302 526.6442 326.2053 C 530.2236 324.9804 530.5752 325.5965 533.8029 323.7555 C 537.018 321.9217 536.3147 320.6897 539.5298 318.8559 C 542.7575 317.015 543.1092 317.631 546.6885 316.4061 C 550.2679 315.1812 550.4702 315.6073 553.8473 313.9563 C 557.9868 311.9326 557.838 311.5883 561.7219 309.0567 C 565.3546 306.6887 565.4488 306.7995 568.8806 304.1571 C 572.6075 301.2874 572.1783 300.6751 576.0392 298.0326 C 579.337 295.7755 579.4353 295.6455 583.1979 294.3578 C 586.594 293.1957 587.0944 294.3578 590.3566 293.133 C 594.2531 291.6699 594.0192 290.7971 597.5154 288.2334 C 601.5359 285.2851 601.2293 284.8209 605.39 282.1089 C 608.746 279.9213 608.8591 280.0124 612.5486 278.4341 C 616.0178 276.9501 616.6688 278.064 619.7073 275.9843 C 623.8275 273.1644 623.2867 272.3096 626.866 268.6349 C 630.4454 264.9602 629.9046 264.1055 634.0247 261.2855 C 637.0633 259.2059 637.5226 259.7305 641.1835 258.8357 C 645.0393 257.8932 645.6135 258.8357 649.058 257.6108 C 653.1301 256.1628 652.2466 253.8639 656.2167 251.4863 C 659.4053 249.5768 659.7789 250.2087 663.3754 249.0365 C 667.2955 247.7589 667.4455 248.1366 671.25 246.5867 C 674.9622 245.0744 674.8293 244.7493 678.4087 242.912 C 681.988 241.0746 682.1225 241.3003 685.5674 239.2373 C 689.2812 237.0132 689.2944 236.9801 692.7261 234.3377 C 696.4531 231.468 696.1579 231.0828 699.8848 228.2132 C 703.3166 225.5708 703.1259 224.6469 707.0435 223.3135 C 710.6425 222.0886 711.0623 223.0311 714.9181 222.0886 C 718.5789 221.1938 718.7418 221.3508 722.0768 219.6388 C 725.9004 217.6761 725.4118 216.702 729.2355 214.7392 C 732.5705 213.0273 733.645 214.6415 736.3942 212.2894 C 740.8037 208.517 739.2484 206.5411 743.5529 202.4902 C 746.4071 199.8042 747.0977 200.5823 750.7116 198.8155 C 754.6143 196.9076 755.1392 197.6685 758.5862 195.1408 C 762.6559 192.1564 761.6247 190.6113 765.7449 187.7914 C 768.7834 185.7117 769.405 186.7669 772.9036 185.3416 C 776.9216 183.7046 776.8754 183.5748 780.7781 181.6669 C 784.3921 179.9001 785.0827 180.6782 787.9369 177.9922 C 792.2414 173.9413 790.9674 172.5096 795.0956 168.1929 C 797.4103 165.7726 797.8706 166.2019 800.8225 164.5182 C 804.3134 162.5272 805.127 163.5296 807.9812 160.8435 C 812.2857 156.7926 810.6646 154.6493 815.14 151.0443 C 818.1812 148.5945 819.0945 149.8721 823.0145 148.5945 C 826.6111 147.4223 826.4948 146.1447 830.1732 146.1447 C 833.6535 146.1447 833.7784 146.1447 837.3319 146.1447 C 840.9371 146.1447 841.5234 146.1447 844.4906 144.9198 C 848.6821 143.1895 847.6373 140.6596 851.6493 137.5704 C 854.796 135.1475 855.3161 135.8873 858.808 133.8957 C 862.8327 131.6002 862.6579 131.2916 866.6826 128.9961 C 870.1746 127.0044 870.0787 126.609 873.8413 125.3214 C 877.2374 124.1592 881 124.0965 881 124.0965 L 881 508.7157 L 873.8413 508.7157 L 866.6826 508.7157 L 858.808 508.7157 L 851.6493 508.7157 L 844.4906 508.7157 L 837.3319 508.7157 L 830.1732 508.7157 L 823.0145 508.7157 L 815.14 508.7157 L 807.9812 508.7157 L 800.8225 508.7157 L 795.0956 508.7157 L 787.9369 508.7157 L 780.7781 508.7157 L 772.9036 508.7157 L 765.7449 508.7157 L 758.5862 508.7157 L 750.7116 508.7157 L 743.5529 508.7157 L 736.3942 508.7157 L 729.2355 508.7157 L 722.0768 508.7157 L 714.9181 508.7157 L 707.0435 508.7157 L 699.8848 508.7157 L 692.7261 508.7157 L 685.5674 508.7157 L 678.4087 508.7157 L 671.25 508.7157 L 663.3754 508.7157 L 656.2167 508.7157 L 649.058 508.7157 L 641.1835 508.7157 L 634.0247 508.7157 L 626.866 508.7157 L 619.7073 508.7157 L 612.5486 508.7157 L 605.39 508.7157 L 597.5154 508.7157 L 590.3566 508.7157 L 583.1979 508.7157 L 576.0392 508.7157 L 568.8806 508.7157 L 561.7219 508.7157 L 553.8473 508.7157 L 546.6885 508.7157 L 539.5298 508.7157 L 533.8029 508.7157 L 526.6442 508.7157 L 519.4855 508.7157 L 511.6109 508.7157 L 504.4522 508.7157 L 497.2935 508.7157 L 489.4189 508.7157 L 482.2603 508.7157 L 475.1015 508.7157 L 467.9428 508.7157 L 460.7841 508.7157 L 453.6254 508.7157 L 445.7509 508.7157 L 438.5922 508.7157 L 431.4334 508.7157 L 424.2747 508.7157 L 417.116 508.7157 L 409.9573 508.7157 L 402.0828 508.7157 L 394.9241 508.7157 L 387.7654 508.7157 L 379.8908 508.7157 L 372.7321 508.7157 L 365.5734 508.7157 L 358.4147 508.7157 L 351.256 508.7157 L 344.0973 508.7157 L 336.2227 508.7157 L 329.064 508.7157 L 321.9053 508.7157 L 314.7466 508.7157 L 307.5879 508.7157 L 300.4292 508.7157 L 292.5546 508.7157 L 285.3959 508.7157 L 278.2372 508.7157 L 271.7944 508.7157 L 264.6357 508.7157 L 257.477 508.7157 L 249.6024 508.7157 L 242.4437 508.7157 L 235.285 508.7157 L 227.4104 508.7157 L 220.2517 508.7157 L 213.093 508.7157 L 205.9343 508.7157 L 198.7756 508.7157 L 191.6169 508.7157 L 183.7423 508.7157 L 176.5836 508.7157 L 169.4249 508.7157 L 162.2662 508.7157 L 155.1075 508.7157 L 147.9488 508.7157 L 140.0742 508.7157 L 132.9155 508.7157 L 125.7568 508.7157 L 117.8823 508.7157 L 110.7235 508.7157 L 103.5648 508.7157 L 96.4061 508.7157 L 89.2474 508.7157 L 82.0887 508.7157 L 74.2142 508.7157 L 67.0555 508.7157 L 59.8968 508.7157 L 52.7381 508.7157 L 45.5794 508.7157 L 42 508.7157 Z" fill-opacity="0.7" stroke="none" fill="url(#zr2654-gradient-0)">
</path>
<path d="M 42 507.4908 C 42 507.4908 43.7897 507.4908 45.5794 507.4908 C 49.1587 507.4908 49.1587 507.4908 52.7381 507.4908 C 56.3174 507.4908 56.3174 507.4908 59.8968 507.4908 C 63.4761 507.4908 63.4761 507.4908 67.0555 507.4908 C 70.6348 507.4908 70.6572 507.4908 74.2142 507.4908 C 78.1739 507.4908 78.1561 506.9068 82.0887 506.2659 C 85.6727 505.6819 85.6423 505.041 89.2474 505.041 C 92.801 505.041 93.0358 505.041 96.4061 505.041 C 100.1945 505.041 100.2671 503.6234 103.5648 501.3663 C 107.4258 498.7238 106.6811 496.8307 110.7235 495.2418 C 113.8399 494.0169 114.2758 494.0169 117.8823 494.0169 C 121.7925 494.0169 121.9235 494.0169 125.7568 494.0169 C 129.4401 494.0169 129.2629 492.5046 132.9155 491.5671 C 136.4216 490.6672 136.4678 490.3422 140.0742 490.3422 C 143.9845 490.3422 144.3722 490.3422 147.9488 490.3422 C 151.8889 490.3422 151.8278 488.2485 155.1075 485.4426 C 158.9865 482.124 158.0747 479.8235 162.2662 478.0932 C 165.2334 476.8683 165.9188 477.7682 169.4249 476.8683 C 173.0775 475.9308 172.9052 474.4185 176.5836 474.4185 C 180.0639 474.4185 181.4846 474.4185 183.7423 474.4185 C 189.0013 474.4185 186.5468 465.9162 191.6169 459.7196 C 194.0635 456.7294 195.1963 457.8823 198.7756 456.045 C 202.355 454.2076 202.3549 454.2076 205.9343 452.3702 C 209.5136 450.5329 209.3046 448.6955 213.093 448.6955 C 216.4633 448.6955 216.7714 448.6955 220.2517 448.6955 C 223.9301 448.6955 223.7496 447.1406 227.4104 446.2457 C 231.2662 445.3032 231.9989 446.2457 235.285 445.0208 C 239.5155 443.4439 238.3235 440.4914 242.4437 437.6714 C 245.4822 435.5918 245.9191 435.2216 249.6024 435.2216 C 253.4357 435.2216 253.5667 435.2216 257.477 435.2216 C 261.0834 435.2216 261.1296 434.8966 264.6357 433.9967 C 268.2883 433.0592 268.5086 433.3223 271.7944 431.5469 C 275.3094 429.6476 274.6527 428.0124 278.2372 426.6473 C 281.4535 425.4224 281.9999 426.5846 285.3959 425.4224 C 289.1586 424.1348 288.8424 423.26 292.5546 421.7477 C 296.3591 420.1978 296.5091 420.5755 300.4292 419.2979 C 304.0257 418.1257 303.9353 417.7856 307.5879 416.8481 C 311.094 415.9482 311.1414 415.6232 314.7466 415.6232 C 318.3001 415.6232 318.425 415.6232 321.9053 415.6232 C 325.5837 415.6232 325.3856 413.1734 329.064 413.1734 C 332.5443 413.1734 332.7298 413.1734 336.2227 413.1734 C 340.2465 413.1734 340.434 412.5145 344.0973 410.7236 C 347.9507 408.8397 347.6766 408.2738 351.256 405.8239 C 354.8353 403.3741 354.7009 403.1484 358.4147 400.9243 C 361.8596 398.8613 362.2756 399.5067 365.5734 397.2496 C 369.4343 394.6071 368.8711 393.7677 372.7321 391.1251 C 376.0298 388.8681 376.1786 388.9627 379.8908 387.4504 C 383.6952 385.9005 383.8453 386.2782 387.7654 385.0006 C 391.3619 383.8284 391.3447 383.7757 394.9241 382.5508 C 398.5034 381.3259 398.4862 381.2732 402.0828 380.101 C 406.0028 378.8234 406.2941 379.4421 409.9573 377.6512 C 413.8107 375.7674 413.2195 374.2146 417.116 372.7516 C 420.3782 371.5267 420.6954 372.1392 424.2747 371.5267 C 427.8541 370.9143 427.9274 371.2017 431.4334 370.3018 C 435.0861 369.3643 435.5536 369.9316 438.5922 367.852 C 442.7123 365.032 442.084 364.0879 445.7509 360.5026 C 449.6006 356.7384 449.1099 353.1532 453.6254 353.1532 C 456.6265 353.1532 457.4138 353.1532 460.7841 353.1532 C 464.5725 353.1532 464.4979 351.5415 467.9428 349.4785 C 471.6566 347.2544 471.2779 346.5416 475.1015 344.5789 C 478.4366 342.8669 478.5818 342.1291 482.2603 342.1291 C 485.7405 342.1291 486.0237 342.1291 489.4189 342.1291 C 493.5403 342.1291 493.532 340.5998 497.2935 338.4543 C 501.0486 336.3126 500.5557 335.0178 504.4522 333.5547 C 507.7144 332.3298 508.1888 333.4452 511.6109 332.3298 C 515.7054 330.9954 515.4674 330.2921 519.4855 328.6551 C 522.9841 327.2298 523.0649 327.4302 526.6442 326.2053 C 530.2236 324.9804 530.5752 325.5965 533.8029 323.7555 C 537.018 321.9217 536.3147 320.6897 539.5298 318.8559 C 542.7575 317.015 543.1092 317.631 546.6885 316.4061 C 550.2679 315.1812 550.4702 315.6073 553.8473 313.9563 C 557.9868 311.9326 557.838 311.5883 561.7219 309.0567 C 565.3546 306.6887 565.4488 306.7995 568.8806 304.1571 C 572.6075 301.2874 572.1783 300.6751 576.0392 298.0326 C 579.337 295.7755 579.4353 295.6455 583.1979 294.3578 C 586.594 293.1957 587.0944 294.3578 590.3566 293.133 C 594.2531 291.6699 594.0192 290.7971 597.5154 288.2334 C 601.5359 285.2851 601.2293 284.8209 605.39 282.1089 C 608.746 279.9213 608.8591 280.0124 612.5486 278.4341 C 616.0178 276.9501 616.6688 278.064 619.7073 275.9843 C 623.8275 273.1644 623.2867 272.3096 626.866 268.6349 C 630.4454 264.9602 629.9046 264.1055 634.0247 261.2855 C 637.0633 259.2059 637.5226 259.7305 641.1835 258.8357 C 645.0393 257.8932 645.6135 258.8357 649.058 257.6108 C 653.1301 256.1628 652.2466 253.8639 656.2167 251.4863 C 659.4053 249.5768 659.7789 250.2087 663.3754 249.0365 C 667.2955 247.7589 667.4455 248.1366 671.25 246.5867 C 674.9622 245.0744 674.8293 244.7493 678.4087 242.912 C 681.988 241.0746 682.1225 241.3003 685.5674 239.2373 C 689.2812 237.0132 689.2944 236.9801 692.7261 234.3377 C 696.4531 231.468 696.1579 231.0828 699.8848 228.2132 C 703.3166 225.5708 703.1259 224.6469 707.0435 223.3135 C 710.6425 222.0886 711.0623 223.0311 714.9181 222.0886 C 718.5789 221.1938 718.7418 221.3508 722.0768 219.6388 C 725.9004 217.6761 725.4118 216.702 729.2355 214.7392 C 732.5705 213.0273 733.645 214.6415 736.3942 212.2894 C 740.8037 208.517 739.2484 206.5411 743.5529 202.4902 C 746.4071 199.8042 747.0977 200.5823 750.7116 198.8155 C 754.6143 196.9076 755.1392 197.6685 758.5862 195.1408 C 762.6559 192.1564 761.6247 190.6113 765.7449 187.7914 C 768.7834 185.7117 769.405 186.7669 772.9036 185.3416 C 776.9216 183.7046 776.8754 183.5748 780.7781 181.6669 C 784.3921 179.9001 785.0827 180.6782 787.9369 177.9922 C 792.2414 173.9413 790.9674 172.5096 795.0956 168.1929 C 797.4103 165.7726 797.8706 166.2019 800.8225 164.5182 C 804.3134 162.5272 805.127 163.5296 807.9812 160.8435 C 812.2857 156.7926 810.6646 154.6493 815.14 151.0443 C 818.1812 148.5945 819.0945 149.8721 823.0145 148.5945 C 826.6111 147.4223 826.4948 146.1447 830.1732 146.1447 C 833.6535 146.1447 833.7784 146.1447 837.3319 146.1447 C 840.9371 146.1447 841.5234 146.1447 844.4906 144.9198 C 848.6821 143.1895 847.6373 140.6596 851.6493 137.5704 C 854.796 135.1475 855.3161 135.8873 858.808 133.8957 C 862.8327 131.6002 862.6579 131.2916 866.6826 128.9961 C 870.1746 127.0044 870.0787 126.609 873.8413 125.3214 C 877.2374 124.1592 881 124.0965 881 124.0965" fill="none" stroke="#39a85a" stroke-width="2" paint-order="fill" stroke-opacity="1" stroke-dasharray="" stroke-linecap="butt" stroke-linejoin="bevel" stroke-miterlimit="10">
</path>
</g>
<path d="M -5 -5 L 123 -5 L 123 19 L -5 19 L -5 -5" fill="rgba(0,0,0,0)" fill-opacity="1" stroke="#ccc" stroke-width="0" paint-order="fill" stroke-opacity="1" stroke-dasharray="" stroke-linecap="butt" stroke-miterlimit="10" transform="matrix(1,0,0,1,389,32.5)">
</path>
<path d="M 0 7 L 25 7" fill="#000" fill-opacity="1" stroke="#39a85a" stroke-width="2" paint-order="fill" stroke-opacity="1" stroke-dasharray="" transform="matrix(1,0,0,1,390,32.5)">
</path>
<path d="M 18.1 7 A 5.6 5.6 0 1 1 18.1 6.9994" fill="#fff" fill-opacity="1" stroke="#39a85a" stroke-width="2" paint-order="fill" stroke-opacity="1" stroke-dasharray="" transform="matrix(1,0,0,1,390,32.5)">
</path>
<text xml:space="preserve" style="font: sans-serif 14px normal normal normal 14px;" fill="#333" fill-opacity="1" stroke="none" transform="matrix(1,0,0,1,390,32.5)" dominant-baseline="central" text-anchor="start" x="30" y="7">apache/apisix</text>
<path d="M -15 -14.6434 L 15 -14.6434 L 15 14.6434 L -15 14.6434 L -15 -14.6434" fill="none" fill-opacity="1" stroke="#ccc" stroke-width="0" paint-order="fill" stroke-opacity="1" stroke-dasharray="" stroke-linecap="butt" stroke-miterlimit="10" transform="matrix(1,0,0,1,881,14.6434)">
</path>
<path d="M -5 -5 L 184 -5 L 184 23 L -5 23 L -5 -5" fill="rgba(0,0,0,0)" fill-opacity="1" stroke="#ccc" stroke-width="0" paint-order="fill" stroke-opacity="1" stroke-dasharray="" stroke-linecap="butt" stroke-miterlimit="10" transform="matrix(1,0,0,1,5,5)">
</path>
<path d="M 5.1196 2.3717 C 4.1376 2.3717 3.3354 2.8977 2.9613 3.7131 L -1.7849 1.6943 C -1.508 1.2655 -1.3561 0.7401 -1.3561 0.1732 A 2.8641 2.8641 0 0 0 -1.4394 -0.518 L 1.5913 -2.8692 C 1.9932 -2.5653 2.5046 -2.3855 3.0723 -2.3855 C 4.4423 -2.3855 5.4659 -3.4084 5.4659 -4.7638 C 5.4659 -6.1191 4.4415 -7.1434 3.0723 -7.1434 C 1.7024 -7.1434 0.6919 -6.1206 0.6919 -4.7645 C 0.6919 -4.4189 0.7613 -4.1011 0.8717 -3.8242 L -1.9238 -1.6797 C -2.4769 -2.5097 -3.3902 -3.0906 -4.4277 -3.0906 A 3.0643 3.0643 0 0 0 -7.5 -0.0343 L -7.5 -0.0197 A 3.0643 3.0643 0 0 0 -4.4277 3.049 C -3.792 3.049 -3.1965 2.8838 -2.7121 2.5799 L 2.7399 4.9033 C 2.8093 6.1892 3.8059 7.1434 5.1196 7.1434 C 6.4903 7.1434 7.5 6.1206 7.5 4.7645 C 7.5 3.4092 6.4756 2.3717 5.1203 2.3717 Z" fill="none" stroke="#666" stroke-width="1" paint-order="fill" stroke-opacity="1" stroke-dasharray="" stroke-linecap="butt" stroke-miterlimit="10" transform="matrix(1,0,0,1,881,14.6434)">
</path>
<text xml:space="preserve" style="font: sans-serif 18px normal normal bold 18px;" fill="#464646" fill-opacity="1" stroke="none" transform="matrix(1,0,0,1,5,5)" dominant-baseline="central" text-anchor="start" x="0" y="9">Contributor Over Time</text>
<defs>
<linearGradient id="zr2654-gradient-0" x1="0" y1="0" x2="0" y2="1" gradientUnits="objectBoundingBox">
<stop offset="0%" stop-color="#39a85a80">
</stop>
<stop offset="100%" stop-color="#39a85a00">
</stop>
</linearGradient>
<clipPath id="zr2654-clip-0">
<path d="M 41 79 L 896.000000 79 L 896.000000 509.7157 L 41 509.7157 L 41 79" fill="#000" fill-opacity="1" stroke="none">
</path>
</clipPath>
</defs>
</g>
</svg>